<?xml version="1.0" encoding="UTF-8"?>
<svg id="Layer_1" data-name="Layer 1" xmlns="http://www.w3.org/2000/svg" viewBox="0 0 1498 2000">
  <defs>
    <style>
      .cls-1 {
        fill: #0023d4;
      }
    </style>
  </defs>
  <path class="cls-1" d="M590.1,1150.83c-.94-9.06.81-17.46,5.53-25.27l-9.32-2.52c1,10.88,4.97,20.49,11.94,28.9,1.67,2.02,5.37,1.85,7.07,0,12.39-13.49,23.61-27.98,33.57-43.34l-9.32-2.52c1.03,8.67,2.06,17.34,3.09,26.01.61,5.1,8.58,7.36,9.82,1.33,1.87-9.08,5.59-17.17,11.2-24.54-3.05-.4-6.09-.8-9.14-1.19,2.21,10.55,7.82,20.02,16.06,26.98,2.22,1.88,6.4,2.15,7.85-1.01,5.63-12.22,13.15-23.19,22.62-32.76l-8.36-2.21c5.55,15.72,13.3,30.43,23.32,43.76,2.01,2.68,6.87,3.77,8.63,0,3.81-8.1,7.61-16.2,11.42-24.31l-9.14-1.19c2.52,7.67,6.75,16.29,14.22,20.23s15.61.49,19.9-6.32c4.35-6.91,5.26-16.15,15.43-15.99,10.58.17,17.76,9.98,23.66,17.53,1.96,2.51,6.49,1.59,7.85-1.01,3.01-5.73,6.89-10.5,11.86-14.66l-7.85-1.01c1.69,3.05,3.39,6.1,5.08,9.15,1.78,3.21,6.87,3.29,8.63,0,3.04-5.68,10.41-6.53,15.99-4.29,7.27,2.92,12.28,10.14,16.69,16.23,2.59,3.57,7.61,3.01,9.14-1.19,1.14-3.12,2.27-6.24,3.41-9.36l-9.82-1.33c.06,10.97,6.56,21.27,16.88,25.38s22.28.9,29.67-7.13l-7.85-1.01c2.55,5.34,5.1,10.68,7.65,16.02,1.07,2.24,4.81,3.33,6.84,1.79,2.44-1.84,4.88-3.68,7.32-5.52l-6.84-1.79c2.74,5.05,6.27,9.51,10.57,13.33,2.51,2.22,7.73,1.79,8.36-2.21.97-6.24.94-12.15-.15-18.38-1-5.71-9.68-4.11-9.82,1.33-.15,5.83-.3,11.67-.45,17.5l8.54-3.54c-4.49-5.11-7.94-10.81-10.63-17.05-1.67-3.88-8.4-2.85-9.14,1.19s-1.44,7.85-2.16,11.77h9.64c-1.87-6.34-3.74-12.69-5.61-19.03-1.16-3.94-7.1-5.13-9.14-1.19-2.83,5.47-5.66,10.94-8.49,16.4h8.63c-4.4-8.69-8.79-17.37-13.19-26.06-1.85-3.66-8.4-3.03-9.14,1.19-1.07,6.14-2.14,12.27-3.22,18.41,3.05-.4,6.09-.8,9.14-1.19-7.9-11.32-14.72-23.29-20.44-35.86-2.11-4.65-9.38-2.16-9.32,2.52.19,14.23-2.66,28.16-8.69,41.07l9.14,1.19c-3.11-15.23-7.99-29.91-14.42-44.06-2.2-4.85-9.08-1.98-9.32,2.52-.49,9.16-.98,18.32-1.47,27.48l8.54-3.54c-9.78-8.98-18.86-18.72-26.96-29.25-3.04-3.96-8.84-2.67-9.32,2.52-1.22,13.18-2.44,26.37-3.66,39.55l9.82-1.33c-5.9-14.15-11.8-28.29-17.69-42.44-1.61-3.85-8.88-5.56-9.64,0-1.37,10.07-2.75,20.14-4.12,30.21l8.36-2.21c-7.51-9.01-15.01-18.02-22.52-27.03-2.28-2.74-7.78-1.39-8.36,2.21-1.22,7.62-2.44,15.23-3.65,22.85h9.64c-5.05-14.46-12.66-27.55-22.72-39.1-2.85-3.27-8.68-.65-8.54,3.54.41,12.4-2.06,24.45-7.59,35.58h8.63c-4.79-7.49-9.58-14.98-14.36-22.46-3.2-5.01-10-1.61-9.14,3.85,1.49,9.4.14,19.06-3.82,27.71h8.63c-6.14-13.91-12.27-27.81-18.41-41.72-1.73-3.92-8.31-2.81-9.14,1.19-1.61,7.76-3.23,15.53-4.84,23.29,3.05-.4,6.09-.8,9.14-1.19-5.35-11.47-10.71-22.95-16.06-34.42-2.29-4.92-8.94-1.91-9.32,2.52-.89,10.43-1.78,20.87-2.66,31.3l8.54-3.54c-6.05-5.06-10.48-11.05-13.59-18.29-2.01-4.68-9.44-2.15-9.32,2.52.3,11.21-1.68,22.21-6.24,32.48h8.63c-3.86-8.59-7.73-17.18-11.59-25.78-2.07-4.61-9.46-2.19-9.32,2.52.23,7.5-1.91,14.61-6.72,20.44l7.85,1.01c-3.46-7.49-6.91-14.99-10.37-22.48-1.71-3.7-8.54-3-9.14,1.19-1.49,10.44-5.3,19.88-11.49,28.42l7.85-1.01c-2.57-3.24-5.13-6.47-7.7-9.71s-7.17-.88-8.36,2.21c-4.18,10.82-9.26,21.22-15.12,31.22l7.85-1.01c-2.5-3.2-3.87-6.97-4.17-11-.48-6.38-10.49-6.43-10,0,.52,6.9,2.85,12.64,7.1,18.07,2.03,2.6,6.38,1.49,7.85-1.01,6.3-10.76,11.64-21.98,16.13-33.61l-8.36,2.21c2.57,3.24,5.13,6.47,7.7,9.71,2.19,2.76,6.18,1.3,7.85-1.01,6.62-9.13,10.9-19.64,12.49-30.81l-9.14,1.19c3.46,7.49,6.91,14.99,10.37,22.48,1.28,2.76,5.92,3.36,7.85,1.01,6.49-7.89,9.97-17.25,9.65-27.51-3.11.84-6.21,1.68-9.32,2.52,3.86,8.59,7.73,17.18,11.59,25.78,1.47,3.26,7.18,3.29,8.63,0,5.29-11.92,7.96-24.47,7.6-37.53l-9.32,2.52c3.4,7.91,8.55,14.79,15.15,20.31,3.43,2.87,8.16.92,8.54-3.54.89-10.43,1.78-20.87,2.66-31.3l-9.32,2.52c5.35,11.47,10.71,22.95,16.06,34.42,1.8,3.85,8.29,2.87,9.14-1.19,1.61-7.76,3.23-15.53,4.84-23.29-3.05.4-6.09.8-9.14,1.19,6.14,13.91,12.27,27.81,18.41,41.72,1.46,3.31,7.15,3.24,8.63,0,5.18-11.32,6.77-23.12,4.83-35.41-3.05,1.28-6.09,2.57-9.14,3.85,4.79,7.49,9.58,14.98,14.36,22.46,1.89,2.96,6.88,3.53,8.63,0,6.31-12.7,9.43-26.44,8.96-40.62l-8.54,3.54c8.88,10.19,15.69,21.92,20.15,34.69,1.46,4.17,8.8,5.3,9.64,0,1.22-7.62,2.44-15.23,3.65-22.85l-8.36,2.21c7.51,9.01,15.01,18.02,22.52,27.03,2.24,2.69,7.86,1.43,8.36-2.21,1.37-10.07,2.75-20.14,4.12-30.21h-9.64c5.9,14.15,11.8,28.29,17.69,42.44,2.16,5.18,9.28,4.53,9.82-1.33,1.22-13.18,2.44-26.37,3.66-39.55l-9.32,2.52c8.64,11.23,18.08,21.69,28.52,31.28,3.27,3,8.3.83,8.54-3.54.49-9.16.98-18.32,1.47-27.48l-9.32,2.52c6.06,13.34,10.48,27.31,13.41,41.67.83,4.05,7.34,5.05,9.14,1.19,6.78-14.53,10.27-30.07,10.06-46.12l-9.32,2.52c5.72,12.57,12.53,24.54,20.44,35.86,2.2,3.15,8.33,3.42,9.14-1.19,1.07-6.14,2.14-12.27,3.22-18.41l-9.14,1.19c4.4,8.69,8.79,17.37,13.19,26.06,1.66,3.28,6.96,3.24,8.63,0,2.83-5.47,5.66-10.94,8.49-16.4l-9.14-1.19c1.87,6.34,3.74,12.69,5.61,19.03,1.31,4.43,8.71,5.08,9.64,0,.72-3.92,1.44-7.85,2.16-11.77-3.05.4-6.09.8-9.14,1.19,3.03,7.04,7.14,13.31,12.19,19.07,2.98,3.39,8.43.56,8.54-3.54.15-5.83.3-11.67.45-17.5l-9.82,1.33c.76,4.33.83,8.72.15,13.07l8.36-2.21c-3.71-3.29-6.64-6.95-9.01-11.3-1.18-2.18-4.73-3.39-6.84-1.79-2.44,1.84-4.88,3.68-7.32,5.52l6.84,1.79c-2.55-5.34-5.1-10.68-7.65-16.02-1.36-2.86-5.8-3.24-7.85-1.01-10.57,11.49-29.39,4.69-29.48-11.17-.03-5.87-7.94-6.48-9.82-1.33-1.14,3.12-2.27,6.24-3.41,9.36,3.05-.4,6.09-.8,9.14-1.19-6.4-8.83-13.83-18.89-25.08-21.56-9.38-2.23-20.12.74-24.87,9.62h8.63c-1.69-3.05-3.39-6.1-5.08-9.15s-5.47-3.01-7.85-1.01c-5.56,4.65-10.05,10.27-13.42,16.68l7.85-1.01c-9.83-12.57-27.15-28.48-43.82-16.61-3.02,2.15-5.15,5.14-6.8,8.42s-2.63,7.43-5.2,10.05c-6.7,6.81-13.29-8.25-14.82-12.9-1.23-3.73-7.19-5.34-9.14-1.19-3.81,8.1-7.61,16.2-11.42,24.31h8.63c-9.49-12.63-17.05-26.47-22.31-41.37-1.22-3.46-5.56-5.03-8.36-2.21-10.03,10.14-18.21,21.83-24.18,34.78l7.85-1.01c-7.05-5.96-11.6-13.53-13.49-22.56-.98-4.68-6.78-4.29-9.14-1.19-6.07,7.97-10.19,17.12-12.21,26.93l9.82,1.33c-1.03-8.67-2.06-17.34-3.09-26.01-.57-4.8-6.44-6.96-9.32-2.52-9.51,14.67-20.18,28.44-32.01,41.32h7.07c-5.15-6.22-8.27-13.79-9.01-21.83-.44-4.76-6.6-7.03-9.32-2.52-5.53,9.16-8,19.66-6.9,30.32.66,6.34,10.67,6.4,10,0h0Z"/>
  <path class="cls-1" d="M682.61,919.79c-4.79-27.62,10.28-55.89-1.03-82.87-9.51-22.67-32.99-34.9-54.88-42.93-51.94-19.06-114.32-23.1-158.92,14.94-20.77,17.71-31.38,41.72-34.34,68.55-2.94,26.68-1.44,55.21,7.5,80.69s25.9,45.84,49.4,59.29c24.78,14.19,54.17,22.64,82.84,21.44,25.62-1.08,50.63-10.41,69.46-28.07,8.83-8.28,15.98-18.31,20.65-29.47,5.57-13.32,7.43-27.65,10.48-41.66,1.56-7.14,3.43-14.27,6.38-20.98,2.56-5.84-6.05-10.93-8.63-5.05-10.38,23.67-8.81,51.3-22.43,73.65-11.87,19.48-32.4,32.88-54.28,38.46-26.56,6.77-54.86,2.38-80.01-7.62-23.88-9.49-45.19-24.51-57.56-47.51-11.56-21.49-15.13-46.55-15-70.68.13-25.87,4.03-52.24,21.26-72.59,34.82-41.12,92.74-43.77,141.22-30.02,23.67,6.71,53.26,16.51,65.86,39.6,7.03,12.89,5.83,27.9,4.04,41.95s-4.18,28.9-1.64,43.56c1.1,6.33,10.74,3.65,9.64-2.66h0Z"/>
  <path class="cls-1" d="M803.32,932.87c-2.02-15.63-3.9-31.27-5.63-46.93-.79-7.18-1.56-14.36-2.29-21.54-.72-7.11-1.69-14.47-.6-21.59,2.04-13.27,12.93-21.79,23.84-28.19,11.51-6.75,24.07-11.34,36.98-14.56s26.34-5.11,39.7-6.3c15.36-1.37,30.93-2.09,46.28-.27,22.55,2.68,43.81,12.28,61.07,27,34.2,29.18,52.35,75.78,40.78,120-5.98,22.85-19.25,44.38-38.72,58.12-11.1,7.83-23.67,13.09-36.55,17.2-14.08,4.5-28.83,8.73-43.58,10.21-15.99,1.6-30.95-1.12-44.77-9.42-12.4-7.45-22.91-17.64-33.3-27.58-19.05-18.23-40.36-39.85-41.4-67.86-.24-6.42-10.24-6.45-10,0,1,27.01,18.13,48.79,36.41,67.18,18.86,18.98,40.25,41.18,67.54,46.63,15.77,3.15,31.91.91,47.38-2.76,14.58-3.46,29.11-7.69,42.87-13.67,24.95-10.84,44.79-29.93,56.25-54.66,21.37-46.13,10.86-99.4-22.26-137.08-15.89-18.07-36.72-32.06-59.83-38.98-28.83-8.64-60.8-5.93-90.14-1.44-14.48,2.21-28.85,5.61-42.44,11.17-12.59,5.15-25.63,11.87-35.05,21.92-10.2,10.88-12.29,24.19-11.07,38.59,1.4,16.49,3.41,32.96,5.37,49.39,1.01,8.47,2.07,16.94,3.16,25.41.81,6.29,10.82,6.37,10,0h0Z"/>
  <path class="cls-1" d="M680.57,860.6c19.38.57,37.12-7.23,55.75-11.18,15.07-3.19,33.1-3.21,44.66,8.44,4.54,4.57,11.61-2.5,7.07-7.07-30.18-30.41-72.91.83-107.49-.19-6.44-.19-6.43,9.81,0,10h0Z"/>
  <path class="cls-1" d="M667.77,1233.33c-.34,6.07.93,11.62,3.5,17.1,2.09,4.46,9.65,2.3,9.32-2.52-.61-8.69-.23-17.3,1.34-25.88h-9.64c1.75,12.18,5.19,23.8,10.04,35.1,2.07,4.81,9.23,2.03,9.32-2.52.24-12.63,1.37-25.17,3.5-37.62l-9.82-1.33c2.46,19.31,5.18,38.99,15.64,55.84,2.59,4.18,9.28,2.51,9.32-2.52.08-10.14.15-20.29.23-30.43.04-4.91.07-9.82.11-14.73.02-3.12-1.29-10,1.36-12.23l-8.36-2.21c3.76,22.31,9.65,44.15,17.6,65.33,1.87,4.97,10,4.68,9.82-1.33-.4-13.3-.8-26.6-1.19-39.9h-10c1.65,19.25,4.68,38.34,9.13,57.14,1.27,5.36,10.45,4.36,9.82-1.33-1.42-12.92-2.12-25.9-2-38.89.06-6.17.3-12.34.71-18.49.33-4.85-.5-13.62,3.5-17.14l-8.36-2.21c6.97,20.86,13.94,41.72,20.91,62.58,1.74,5.2,9.85,4.52,9.82-1.33-.07-14.44-.15-28.89-.22-43.33h-10c.48,16.4,2.79,32.65,6.92,48.53,1.44,5.56,9.64,4.24,9.82-1.33.3-9.38.61-18.75.91-28.13.11-3.31-1.52-18.89,3.27-20.08l-6.15-3.49c4.08,15.02,11.1,28.7,20.65,40.97,2.2,2.83,7.82,1.32,8.36-2.21,1.68-10.94,2.38-21.89,1.9-32.95l-9.82,1.33c1.89,6.23,3.11,12.49,3.56,18.99.37,5.35,8.45,7.11,9.82,1.33,1.78-7.5,1.63-14.96-.6-22.34-1.14-3.77-5.52-4.67-8.36-2.21-15.18,13.18-16.39,34.43-28.26,49.77l8.36,2.21c-2.61-16.85-5.22-33.7-7.83-50.55-.79-5.09-8.41-4.42-9.64,0-3.83,13.74-8,27.38-12.51,40.91h9.64c-1.33-5.38-2.67-10.75-4-16.13-1.14-4.59-8.73-4.94-9.64,0-2.07,11.18-1.84,22.29.83,33.34,1.1,4.55,8.86,4.98,9.64,0,.67-4.27,1.35-8.54,2.02-12.81h-9.64c1.08,3.49,2.15,6.99,3.23,10.48,1.89,6.13,11.54,3.52,9.64-2.66-1.08-3.49-2.15-6.99-3.23-10.48-1.33-4.32-8.83-5.18-9.64,0-.67,4.27-1.35,8.54-2.02,12.81h9.64c-2.24-9.26-2.56-18.65-.83-28.03h-9.64c1.33,5.38,2.67,10.75,4,16.13,1.25,5.02,8.15,4.48,9.64,0,4.51-13.53,8.68-27.17,12.51-40.91h-9.64c2.61,16.85,5.22,33.7,7.83,50.55.54,3.51,6.16,5.05,8.36,2.21,11.71-15.13,13.53-36.98,28.26-49.77l-8.36-2.21c1.72,5.69,1.98,11.24.6,17.03l9.82,1.33c-.51-7.37-1.77-14.58-3.92-21.65-1.59-5.23-10.07-4.49-9.82,1.33.44,10.14,0,20.26-1.54,30.29l8.36-2.21c-8.45-10.86-14.48-23.3-18.08-36.56-.72-2.66-3.53-4.14-6.15-3.49-9.06,2.24-10.04,12.22-10.29,20.02-.41,12.61-.82,25.22-1.23,37.83l9.82-1.33c-3.91-15.04-6.1-30.33-6.56-45.87-.19-6.42-10.03-6.46-10,0,.07,14.44.15,28.89.22,43.33l9.82-1.33c-6.97-20.86-13.94-41.72-20.91-62.58-1.23-3.69-5.47-4.76-8.36-2.21-4.28,3.77-5.08,9.11-5.63,14.51-.75,7.43-1.19,14.9-1.4,22.36-.42,14.94.26,29.88,1.89,44.74l9.82-1.33c-4.25-17.94-7.19-36.11-8.77-54.48-.54-6.31-10.2-6.52-10,0,.4,13.3.8,26.6,1.19,39.9l9.82-1.33c-7.95-21.18-13.83-43.02-17.6-65.33-.68-4.04-5.79-4.37-8.36-2.21-3.06,2.59-3.97,6.31-4.19,10.18-.34,5.96-.11,12-.16,17.96-.09,12.11-.18,24.22-.27,36.32l9.32-2.52c-9.49-15.29-12.04-33.25-14.28-50.79-.64-5-8.77-7.45-9.82-1.33-2.28,13.33-3.6,26.76-3.85,40.28,3.11-.84,6.21-1.68,9.32-2.52-4.49-10.45-7.42-21.46-9.03-32.71-.7-4.86-8.78-4.69-9.64,0-1.73,9.46-2.37,18.94-1.7,28.54l9.32-2.52c-1.83-3.9-2.37-7.78-2.13-12.05.36-6.43-9.64-6.41-10,0h0Z"/>
  <path class="cls-1" d="M687.6,1140.37l.03-20.27c0-5.73-8.15-6.66-9.82-1.33-2.04,6.5-4.1,13.21-8.45,18.6l8.36,2.21c-2.23-7.9-4.45-15.8-6.68-23.7-1.45-5.15-7.87-4.3-9.64,0-1.45,3.51-2.9,7.03-4.34,10.54-.94,2.27-2.04,7.62-4.87,8.07l6.15,3.49c-2.18-6.86-4.35-13.72-6.53-20.58-1.79-5.63-9.22-4.14-9.82,1.33-.97,8.87-3.08,17.49-6.08,25.89h9.64c-1.95-5.07-3.91-10.15-5.86-15.22-1.78-4.62-7.94-4.85-9.64,0-2.85,8.1-7.34,15.23-13.3,21.39l7.85,1.01c-2.6-5.46-4.57-11.09-6.07-16.95-1.21-4.74-8.45-4.79-9.64,0-.84,3.39-1.84,6.74-3.23,9.96-.83,1.94-2.46,6.92-4.52,7.86l3.85-.5.4.27,1.46,3.54.09-.97c.62-6.4-9.38-6.36-10,0-.73,7.55,8.45,8.45,12.41,3.76,4.73-5.6,7.43-14.28,9.16-21.25h-9.64c1.71,6.69,4.1,13.1,7.07,19.34,1.39,2.92,5.76,3.17,7.85,1.01,7.19-7.42,12.45-16.07,15.87-25.8h-9.64c1.95,5.07,3.91,10.15,5.86,15.22,1.78,4.64,7.92,4.83,9.64,0,3.32-9.27,5.37-18.77,6.44-28.55l-9.82,1.33c2.18,6.86,4.35,13.72,6.53,20.58.88,2.79,3.39,3.93,6.15,3.49,4.65-.74,7.38-4.53,9.18-8.59,2.48-5.6,4.69-11.34,7.02-17h-9.64c2.23,7.9,4.45,15.8,6.68,23.7.94,3.32,5.91,5.24,8.36,2.21,5.52-6.85,8.41-14.71,11.02-23.02l-9.82-1.33-.03,20.27c0,6.43,9.99,6.44,10,0h0Z"/>
  <path class="cls-1" d="M828.94,1115.53c.27-4.24-.01-8.26-.61-12.45-.54-3.72-6.04-4.8-8.36-2.21-4.86,5.43-9.63,10.94-14.3,16.54l8.54,3.54c-.91-7.14-1.81-14.28-2.72-21.42-.53-4.21-7.06-7.67-9.32-2.52-2.88,6.57-6.91,12.01-12.39,16.65-4.28,3.62,1.54,11.32,6.06,7.85,4.9-3.76,17.03-6.44,22.23-1.82,2.23,1.98,3.77,6.14,4.13,9,.5,3.97-3.94,4.65-7.34,4.7-2.73.04-4.96,2.26-5,5-.06,4.71.57,9.27,1.94,13.77s8.41,4.93,9.64,0c.19-.75,2.36-9.39,4.73-7.48,4.97,3.99,12.09-3.04,7.07-7.07-4-3.21-8.94-3.92-13.51-1.23-4.75,2.8-6.66,8.04-7.93,13.12h9.64c-1.13-3.7-1.64-7.24-1.59-11.12l-5,5c5.94-.09,14.07-2.39,16.95-8.23,2.6-5.27-.69-13.57-3.43-18.29-7.05-12.14-27.34-11.85-37.59-4l6.06,7.85c6.04-5.12,10.77-11.42,13.95-18.67l-9.32-2.52c.91,7.14,1.81,14.28,2.72,21.42.48,3.76,5.43,7.26,8.54,3.54,4.67-5.6,9.43-11.11,14.3-16.54l-8.36-2.21c.47,3.26.47,6.51.26,9.8-.42,6.43,9.59,6.4,10,0h0Z"/>
  <path class="cls-1" d="M656.74,1426.25c-1.01-7.3-3.28-14.14-6.59-20.72-2.42-4.81-8.92-1.99-9.32,2.52-.36,4.06-.71,8.13-1.07,12.19l9.82-1.33c-5.37-15.76-11.67-31.18-18.83-46.22-2.33-4.9-8.92-1.91-9.32,2.52-.28,3.13-.96,6.09-1.9,9.08,3.05-.4,6.09-.8,9.14-1.19-5.48-7.37-7.79-15.68-6.86-24.82l-7.52,4.32c10.15,6.02,13.31,19.14,22.56,26.36,3.58,2.8,7.99.96,8.54-3.54.98-8.14,2.96-16.08,5.67-23.82h-9.64c3.32,9.86,6.61,19.73,9.96,29.58,2.92,8.6,6.08,17.14,11.22,24.69,2.13,3.13,8.44,3.44,9.14-1.19,3.35-22.38,6.75-44.77,11.78-66.85l-9.82-1.33c3.22,28.72,7.55,57.3,13.03,85.68l9.64-2.66c-3.05-10.55-7.31-20.65-12.74-30.2-2.67-4.69-8.79-2.08-9.32,2.52-1.9,16.53-.72,33.14,3.31,49.27l9.14-3.85c-1.68-2.45-2.51-4.7-2.54-7.68l-5,5c9.86.82,17.76,8.32,27.7,9.44,10.2,1.15,16.95-4.12,21.33-12.91l-7.85,1.01c1.38,1.76,2.77,3.52,4.15,5.27,2.16,2.74,6.21,1.32,7.85-1.01,1.28-1.83,2.57-3.65,3.85-5.48s3.35-2.65-.19-2.88c-3.32-.21-1.85-.39-1.62,1.31.4,3.04,3.6,6.01,6.46,6.63,3.27.71,6.64-.75,9.05-2.93,1.47-1.33,4.64-8.13,6.44-8.03l-3.54-1.46c2.82,3.56,5.84,9.12,11.23,7.56,4.37-1.26,7.26-7.06,9.32-10.74,5.13-9.18,8.16-19.72,15.81-27.27l-8.36-2.21c1.43,5.07,2.86,10.15,4.28,15.22,1.29,4.57,8.56,4.95,9.64,0,5.6-25.54,8.21-51.62,7.69-77.76-.11-5.24-6.52-6.43-9.32-2.52-20.86,29.13-38.36,60.4-55.76,91.66,3.11.84,6.21,1.68,9.32,2.52-1.48-15.98-1.92-32-1.33-48.04.22-6.05-7.87-6.22-9.82-1.33-7.99,19.99-15.93,40-23.84,60.03h9.64c-1.97-11.68-.86-23.81-.51-35.59s.69-23.59,1.04-35.39c.18-6.08-7.83-6.19-9.82-1.33-5.83,14.2-11.92,28.64-22.44,40.08l8.54,3.54c.37-28.09,5.53-55.72,15.19-82.09h-9.64c5.48,26.96,11.28,54,23.7,78.77,2.06,4.11,7.84,2.59,9.14-1.19,5.57-16.21,11.14-32.42,16.71-48.64l-9.82-1.33c.62,10.31,1.23,20.62,2.15,30.91.84,9.45,1.02,20.15,3.67,29.29,2.4,8.29,10.96,6.75,15.73,1.63,7.03-7.55,13.15-16.22,19.65-24.23l-8.54-3.54c.54,11.16,1.07,22.31,1.61,33.47.19,4-.37,9.3,2.11,12.75,2.29,3.2,6.27,3.87,9.65,2,3.82-2.11,6.86-6.45,9.69-9.69,3.36-3.84,6.55-7.84,9.59-11.93,6.29-8.46,11.76-17.47,16.49-26.88l-9.14-1.19c.58,1.47,1.15,2.93,1.73,4.4,2.11,5.37,9.15,4.36,9.82-1.33s1.18-11.61,1.36-17.44c.12-4.11.11-8.49-2.39-11.96-5.77-8-15.38-2.73-20.4,3.02-4.22,4.83,2.83,11.93,7.07,7.07.84-.97,3.53-4.59,4.93-4s.84,4.43.79,5.86c-.18,5.83-.67,11.65-1.36,17.44l9.82-1.33c-.58-1.47-1.15-2.93-1.73-4.4-1.43-3.63-7.02-5.41-9.14-1.19-7.18,14.28-16.09,27.59-26.86,39.41-1.04,1.14-2.78,2.54-3.6,3.84-2.19,1.44-1.52,2.44,2.02,3.01-.14-.56-.2-1.14-.19-1.72.67-3.77-.41-8.55-.6-12.43-.43-8.93-.86-17.85-1.29-26.78-.19-3.9-5.61-7.14-8.54-3.54-4.91,6.06-9.83,12.12-14.74,18.17-1.23,1.51-2.44,3.04-3.68,4.54-.52.7-1.08,1.37-1.68,2.01-1.04.82-.57,1.58,1.43,2.29.2-.2-.78-4.74-.81-4.9-.32-2.11-.61-4.22-.87-6.34-1.95-15.37-2.85-30.85-3.78-46.31-.34-5.67-7.97-6.73-9.82-1.33-5.57,16.21-11.14,32.42-16.71,48.64,3.05-.4,6.09-.8,9.14-1.19-12.01-23.93-17.4-50.33-22.7-76.38-1.07-5.24-8.09-4.23-9.64,0-9.95,27.16-15.16,55.83-15.55,84.75-.06,4.22,5.58,6.75,8.54,3.54,11.77-12.79,18.5-28.61,25.01-44.49l-9.82-1.33c-.37,12.45-.73,24.9-1.1,37.35-.36,12.13-1.1,24.26.93,36.28.91,5.42,8.05,4.02,9.64,0,7.91-20.02,15.86-40.03,23.84-60.03l-9.82-1.33c-.59,16.04-.15,32.06,1.33,48.04.43,4.63,6.72,7.19,9.32,2.52,17.41-31.26,34.91-62.53,55.76-91.66l-9.32-2.52c.51,25.27-1.92,50.41-7.33,75.11h9.64c-1.43-5.07-2.86-10.15-4.28-15.22-1.02-3.64-5.67-4.85-8.36-2.21-5.16,5.09-8.64,11.25-11.72,17.75-1.51,3.19-2.96,6.41-4.59,9.55-.81,1.55-1.65,3.09-2.58,4.58-.53.85-1.08,1.68-1.65,2.49-1.31,1.19-1.54,1.61-.69,1.24l3.85.5c-2.57-1.1-3.38-5.05-5.85-6.45-2.14-1.22-5.1-.84-7.23.19s-3.87,2.92-5.24,4.91c-.72,1.04-1.21,2.24-1.93,3.26-.4.76-.94,1.38-1.63,1.88,1.16,1.18,1.55,1.38,1.17.59-1.57-3.98-3.35-8.33-8.57-7.64-5.49.73-8.88,8.43-11.7,12.44l7.85-1.01c-1.38-1.76-2.77-3.52-4.15-5.27-1.94-2.46-6.53-1.64-7.85,1.01-1.7,3.41-3.35,6.97-7.37,7.94-3.81.92-8.04-.45-11.53-1.91-7.24-3.04-13.49-6.84-21.49-7.51-2.67-.22-5.03,2.47-5,5,.06,4.64,1.28,8.89,3.91,12.73,3.13,4.57,10.57,1.85,9.14-3.85-3.83-15.31-4.76-30.94-2.96-46.62-3.11.84-6.21,1.68-9.32,2.52,5.02,8.82,8.92,18.06,11.73,27.81,1.81,6.25,10.85,3.6,9.64-2.66-5.31-27.5-9.55-55.18-12.67-83.02-.58-5.17-8.46-7.29-9.82-1.33-5.03,22.08-8.43,44.46-11.78,66.85,3.05-.4,6.09-.8,9.14-1.19-5.01-7.36-7.94-15.56-10.77-23.94-3.14-9.31-6.27-18.63-9.4-27.94-1.61-4.78-8-4.7-9.64,0-3.02,8.63-4.93,17.4-6.03,26.47l8.54-3.54c-10.02-7.82-13.32-21.25-24.58-27.93-3.52-2.09-7.15.68-7.52,4.32-1.08,10.64,1.84,21.28,8.22,29.87,2.53,3.4,7.76,3.18,9.14-1.19,1.22-3.86,1.9-7.71,2.26-11.73l-9.32,2.52c6.79,14.26,12.72,28.88,17.82,43.83,1.86,5.47,9.33,4.29,9.82-1.33.36-4.06.71-8.13,1.07-12.19-3.11.84-6.21,1.68-9.32,2.52,2.92,5.81,4.69,11.9,5.58,18.33s10.52,3.65,9.64-2.66h0Z"/>
</svg>