<?xml version="1.0" encoding="UTF-8"?>
<svg id="Layer_2" data-name="Layer 2" xmlns="http://www.w3.org/2000/svg" viewBox="0 0 1498 2000">
  <defs>
    <style>
      .cls-1 {
        fill: #0023d4;
      }
    </style>
  </defs>
  <path class="cls-1" d="M629.43,1404.7c.07-11,.13-21.99.2-32.99l-9.82,1.33c2.94,10.39,5.89,20.78,8.83,31.17,1.77,6.25,10.88,3.6,9.64-2.66-1.69-8.56-3.69-17.05-6-25.47-1.7-6.21-11.22-3.59-9.64,2.66,2.4,9.52,5.72,18.68,9.83,27.58,2.18,4.72,9.23,2.1,9.32-2.52.24-12.9.48-25.79.72-38.69l-9.82,1.33c7.14,18.88,13.16,38.13,18.06,57.7,1.57,6.25,11.09,3.61,9.64-2.66-1.87-8.08-3.73-16.15-5.6-24.23-1.34-5.81-9.36-4-9.82,1.33-.98,11.36.54,22.7,4.5,33.4,1.57,4.23,8.54,5.25,9.64,0l2.29-10.93-7.34,2.99c6.23,4.7,11.86,10.08,17,15.94,3.11,3.54,8.19.42,8.54-3.54s.68-7.82,1.02-11.74l-8.54,3.54c3.7,4.11,7.4,8.22,11.11,12.33,2.41,2.68,7.65,1.43,8.36-2.21,1.02-5.25,2.04-10.49,3.06-15.74l-8.36,2.21c2.62,3.25,5.24,6.5,7.86,9.75,3,3.71,8.21.3,8.54-3.54.74-8.6,1.48-17.2,2.22-25.81l-9.32,2.52c6.7,15.45,13.51,30.87,22.91,44.91,2.74,4.09,9.16,2.59,9.32-2.52.87-28.96,1.23-57.92,1.1-86.89l-9.32,2.52c8.7,13.33,15.36,27.66,19.85,42.94l8.36-4.86c-11.34-14.55-22.68-29.1-34.02-43.65-2.26-2.9-7.71-1.26-8.36,2.21-1.84,9.86-3.67,19.71-5.51,29.57l9.14-1.19c-5.7-13.39-11.4-26.78-17.11-40.17-2.16-5.07-8.91-1.77-9.32,2.52-1.68,17.64-5.33,34.98-10.72,51.85,3.05-.4,6.09-.8,9.14-1.19-4.96-7.14-9.92-14.29-14.88-21.43-2.82-4.07-9.06-2.59-9.32,2.52-.38,7.49.77,14.84,3.5,21.83,1.99,5.1,9.6,4.6,9.82-1.33.53-13.95,1.05-27.9,1.58-41.86l-9.82,1.33c6.81,19.18,15.35,37.67,25.62,55.25,1.79,3.06,6.95,3.45,8.63,0,11.41-23.33,6.82-52.02,21.4-73.92h-8.63c7.11,15.62,12.77,31.82,17.06,48.44,1.35,5.21,7.91,4.25,9.64,0,3.84-9.43,7.67-18.87,11.51-28.3l-9.82-1.33c1.46,13.19,2.93,26.37,4.39,39.56.45,4.01,3.85,5.91,7.52,4.32,6.49-2.81,9.4-9.78,12.55-15.63,4.27-7.92,8.54-15.84,12.81-23.76l-9.14-1.19c1.31,8.35.63,16.66-1.68,24.76l9.64,2.66c2.78-17.31,4.14-34.75,3.92-52.28-.05-4.22-5.5-6.75-8.54-3.54-10.69,11.31-20.3,23.57-28.74,36.64l8.63,5.05c2.72-5.58,6.02-10.66,10.16-15.29l-8.54-3.54c-.88,8.66.88,26.43,11.27,29.26,4.91,1.34,9.19-1.8,12.41-5.15,4.82-5.02,9.37-10.35,14.04-15.51l-8.54-3.54c-.31,12.24-2.9,24.02-7.57,35.33-2.17,5.27,6.48,8.76,9.14,3.85,7.54-13.89,16.07-27.18,25.58-39.81l-9.14-1.19c1.88,13.58,1.52,27.42-.95,40.89-.94,5.13,6.63,9.39,9.14,3.85,3.72-8.21,8.07-16.03,13.06-23.53l-9.32-2.52c-1.02,9.76-4.66,19.17-10.47,27.09-3.06,4.17-7.64,5.75-11.97,8.35s-8.71,5.78-12.81,9.05l8.36,2.21c-1.14-7.53-1.15-15.12-.33-22.68.64-5.85-8.14-6.41-9.82-1.33-2.64,7.96-7.98,14.27-15.25,18.41,2.51,1.44,5.02,2.88,7.52,4.32-.45-8.99.94-17.48,4.18-25.88,2.1-5.45-6.25-8.49-9.14-3.85-6.33,10.17-13.75,19.43-22.26,27.86l8.36,2.21c-1.82-6.24-1.8-12.2.06-18.43,1.59-5.33-6.58-9-9.14-3.85-4.34,8.72-9.68,16.73-16.18,23.99l8.36,2.21c-1.06-4.69-.75-8.9.71-13.46-3.05.4-6.09.8-9.14,1.19,2.87,5.39,5.56,10.94,8.66,16.21,2.45,4.17,6,7.85,11.15,8.01,4.76.15,9.12-2.42,12.23-5.89,3.37-3.77,5.11-9.3,9.54-11.99l-7.34-2.99c.89,6.12,4.6,14.11,11.84,14.08,3.83-.02,6.48-2.41,8.8-5.18,3.51-4.18,6.96-8.4,10.44-12.61l-7.85-1.01c2.11,4.64,5.46,8.17,9.82,10.78,2.92,1.75,6.31,0,7.34-2.99,2.08-6.01,5.01-11.5,8.68-16.69h-8.63c1.86,2.74,3.71,5.49,5.57,8.23s6.86,3.6,8.63,0c7.29-14.78,14.58-29.57,21.87-44.35,1.32-2.68.39-6.67-2.99-7.34-7.47-1.48-14.77-1.38-22.17.46l6.15,6.15c.71-4.92,2.15-9.33,4.65-13.64,2.99-5.16-3.64-9.56-7.85-6.06-3.75,3.11-7.93,5.71-12.43,7.61l6.33,4.82c-.31-6.47-.63-12.95-.94-19.42-.2-4.18-5.4-6.79-8.54-3.54-12,12.47-23.82,25.13-35.44,37.96l8.54,3.54c1.15-8.63-6.96-14.37-14.56-15.77-8.62-1.59-21.09,5.93-28.21-.63-4.81-4.43-5.76-12.54-7.65-18.46-2.25-7.07-5.44-13.72-12.01-17.67-2.46-1.48-5.29-.39-6.84,1.79-8.28,11.68-15.24,24.14-20.85,37.31-2.49,5.85,6.12,10.96,8.63,5.05,5.61-13.17,12.58-25.63,20.85-37.31l-6.84,1.79c5.36,3.23,6.91,9.9,8.56,15.51,1.79,6.11,3.53,12.62,7.74,17.58,5.15,6.07,12.61,7.56,20.25,6.52,4.4-.6,22.23-5.39,20.93,4.28-.58,4.35,5.82,6.53,8.54,3.54,11.62-12.83,23.44-25.48,35.44-37.96l-8.54-3.54c.31,6.47.63,12.95.94,19.42.14,2.86,3.15,6.16,6.33,4.82,6.2-2.61,11.66-5.88,16.84-10.18-2.62-2.02-5.24-4.04-7.85-6.06-2.9,5-4.83,10.29-5.66,16.03-.54,3.71,2.12,7.15,6.15,6.15,5.61-1.39,11.18-1.59,16.85-.46l-2.99-7.34c-7.29,14.78-14.58,29.57-21.87,44.35h8.63c-1.86-2.74-3.71-5.49-5.57-8.23-2.21-3.26-6.41-3.15-8.63,0-4.17,5.89-7.33,12.26-9.69,19.07l7.34-2.99c-2.98-1.78-4.8-4.04-6.23-7.19-1.26-2.78-5.92-3.34-7.85-1.01-3.48,4.2-6.93,8.43-10.44,12.61-1.37,1.63-1.17,2.95-2.35.98-.97-1.62-1.31-3.62-1.58-5.46-.47-3.23-4.86-4.5-7.34-2.99-2.85,1.73-5.03,3.95-6.95,6.65-2.13,3-3.69,6.96-6.92,8.97-4.12,2.55-5.8-2.95-7.38-5.92-2.21-4.15-4.43-8.3-6.64-12.45s-7.89-2.72-9.14,1.19c-1.99,6.23-2.14,12.42-.71,18.78.81,3.58,5.89,4.96,8.36,2.21,7.06-7.87,13.04-16.54,17.75-26.01-3.05-1.28-6.09-2.57-9.14-3.85-2.34,7.86-2.36,15.88-.06,23.75,1.05,3.61,5.66,4.88,8.36,2.21,9.1-9,17.07-19.01,23.83-29.88l-9.14-3.85c-3.52,9.13-5.03,18.76-4.54,28.53.19,3.76,4.11,6.26,7.52,4.32,9.55-5.44,16.39-13.97,19.85-24.38l-9.82-1.33c-.93,8.52-.6,16.87.69,25.34.63,4.14,5.8,4.25,8.36,2.21,4.76-3.79,9.86-7.12,15.21-10,2.34-1.26,4.97-2.14,6.85-4.04s3.64-4.4,5.21-6.69c6.3-9.18,9.76-19.82,10.91-30.82.56-5.32-6.83-6.25-9.32-2.52-5,7.5-9.34,15.32-13.06,23.53l9.14,3.85c2.82-15.38,3.09-30.73.95-46.21-.67-4.81-6.92-4.14-9.14-1.19-9.51,12.63-18.04,25.91-25.58,39.81l9.14,3.85c5-12.11,7.6-24.9,7.93-37.99.11-4.21-5.62-6.75-8.54-3.54-2.55,2.82-5.1,5.64-7.66,8.46-1.97,2.18-5.28,7.53-7.96,8.6-4.82,1.92-5.33-15.64-5.03-18.59.43-4.3-5.78-6.62-8.54-3.54-4.7,5.25-8.64,10.98-11.72,17.32-2.8,5.76,5.11,10.5,8.63,5.05,7.99-12.38,17.06-23.91,27.18-34.62l-8.54-3.54c.21,16.62-.93,33.2-3.56,49.62-1,6.21,7.83,8.99,9.64,2.66,2.83-9.91,3.28-19.92,1.68-30.08-.68-4.31-7.22-4.75-9.14-1.19-3.66,6.79-7.32,13.58-10.98,20.36-2.68,4.96-5.25,13.03-10.8,15.43,2.51,1.44,5.02,2.88,7.52,4.32-1.46-13.19-2.93-26.37-4.39-39.56-.64-5.72-7.66-6.65-9.82-1.33-3.84,9.43-7.67,18.87-11.51,28.3h9.64c-4.51-17.47-10.59-34.42-18.07-50.83-1.67-3.66-6.76-2.82-8.63,0-14.81,22.23-9.94,50.5-21.4,73.92h8.63c-9.84-16.84-18.09-34.47-24.61-52.86-1.86-5.24-9.6-4.49-9.82,1.33-.53,13.95-1.05,27.9-1.58,41.86l9.82-1.33c-2.44-6.26-3.49-12.46-3.15-19.17l-9.32,2.52c4.96,7.14,9.92,14.29,14.88,21.43,2.46,3.54,7.78,3.07,9.14-1.19,5.67-17.74,9.31-35.97,11.08-54.51l-9.32,2.52c5.7,13.39,11.4,26.78,17.11,40.17,1.66,3.9,8.39,2.83,9.14-1.19,1.84-9.86,3.67-19.71,5.51-29.57l-8.36,2.21c11.34,14.55,22.68,29.1,34.02,43.65,3.17,4.07,9.68-.37,8.36-4.86-4.72-16.06-11.71-31.31-20.86-45.33-2.64-4.04-9.34-2.62-9.32,2.52.13,28.97-.24,57.94-1.1,86.89l9.32-2.52c-9.4-14.04-16.21-29.46-22.91-44.91-2.18-5.01-8.94-1.82-9.32,2.52-.74,8.6-1.48,17.2-2.22,25.81l8.54-3.54c-2.62-3.25-5.24-6.5-7.86-9.75-2.31-2.86-7.68-1.29-8.36,2.21-1.02,5.25-2.04,10.49-3.06,15.74l8.36-2.21c-3.7-4.11-7.4-8.22-11.11-12.33-3.14-3.49-8.19-.46-8.54,3.54s-.68,7.82-1.02,11.74l8.54-3.54c-5.74-6.54-12.09-12.27-19.03-17.51-2.51-1.9-6.73.08-7.34,2.99l-2.29,10.93h9.64c-3.68-9.96-5.06-20.16-4.14-30.74l-9.82,1.33c1.87,8.08,3.73,16.15,5.6,24.23l9.64-2.66c-4.9-19.57-10.93-38.82-18.06-57.7-1.92-5.09-9.71-4.61-9.82,1.33-.24,12.9-.48,25.79-.72,38.69l9.32-2.52c-3.75-8.12-6.64-16.52-8.82-25.19l-9.64,2.66c2.31,8.42,4.3,16.9,6,25.47l9.64-2.66c-2.94-10.39-5.89-20.78-8.83-31.17-1.53-5.41-9.79-4.36-9.82,1.33-.07,11-.13,21.99-.2,32.99-.04,6.44,9.96,6.44,10,0h0Z"/>
  <path class="cls-1" d="M685.01,1246.83l-.18-12.83h-10c.33,7.8.66,15.59,1,23.39.24,5.62,8.12,6.8,9.82,1.33,4.86-15.65,9.71-31.3,14.57-46.94-3.05.4-6.09.8-9.14,1.19,8.57,14.94,16.21,30.39,22.74,46.32,1.66,4.05,8.57,5.4,9.64,0,2.73-13.71,2.41-27.54,1.81-41.43h-10c2.13,18.47,5.55,36.72,10.4,54.68,1.54,5.71,9.35,4.09,9.82-1.33,1.5-17.36,3-34.72,4.5-52.08l-9.82,1.33c5.75,20.89,11.51,41.79,17.26,62.68,1.24,4.5,8.72,5.02,9.64,0,3.76-20.53,6.16-41.27,7.12-62.12h-10c1.19,17.56,3.08,35.05,5.6,52.47.72,4.94,8.64,4.59,9.64,0,3.83-17.54,9.04-34.7,15.6-51.41h-9.64c2.66,11.12,5.81,22.09,9.44,32.93,1.53,4.56,8.27,4.94,9.64,0,2.72-9.8,5.96-19.41,9.73-28.86h-9.64c2.1,9.71,4.2,19.42,6.3,29.13,1.05,4.88,8.45,4.65,9.64,0,1.83-7.14,2.94-14.39,3.4-21.74.3-4.84-7.18-6.97-9.32-2.52-3.97,8.25-9.62,15.39-17.05,20.78l6.84,1.79c-2.65-5.56-6.31-10.44-10.86-14.58-2.84-2.58-7.18-1.46-8.36,2.21-1.88,5.87-4.36,11.44-7.57,16.71-.37.6-2.07,3.96-2.86,4.19-1.09.32-2.1-.97-2.79-1.52-2.76-2.22-5.16-5.25-7.64-7.79-3.24-3.3-7.1-8.14-12.23-5.35-4.57,2.49-6.22,10.31-8.15,14.78l7.85-1.01c-4.57-5.53-9.14-11.07-13.7-16.6-3.06-3.7-6.64-10.09-12.26-9.81s-7.06,5.24-8.54,9.6c-1.97,5.77-5.39,10.59-9.89,14.66l8.36,2.21c-3.11-13.72-4.68-27.6-4.77-41.67l-9.32,2.52c.56,1.11,1.11,2.22,1.67,3.33,2.88,5.75,11.51.7,8.63-5.05-.56-1.11-1.11-2.22-1.67-3.33-2.27-4.53-9.35-2.25-9.32,2.52.1,14.93,1.83,29.77,5.13,44.33.87,3.85,5.71,4.6,8.36,2.21,3.24-2.93,6.08-6.28,8.34-10.03,1.07-1.76,1.96-3.6,2.76-5.5.36-.85,2.66-5.49,2.16-6.22l-2.48.37.78.88c.29.95,1.85,2.24,2.49,3.02,1.66,2.01,3.32,4.02,4.98,6.04,3.74,4.53,7.48,9.05,11.21,13.58,1.9,2.3,6.64,1.8,7.85-1.01.71-1.65,3.34-10.66,5.01-11.39l-3.85.5c1.71.48,4.29,4.27,5.6,5.6,2.2,2.24,4.32,4.65,6.67,6.74,3.53,3.14,8.11,5.09,12.67,2.81,4.17-2.09,6.74-7.02,8.93-10.9,3-5.32,5.36-10.97,7.22-16.78l-8.36,2.21c3.98,3.63,6.98,7.7,9.3,12.56,1.09,2.27,4.78,3.29,6.84,1.79,8.83-6.41,15.9-14.51,20.64-24.37l-9.32-2.52c-.4,6.48-1.43,12.79-3.04,19.09h9.64c-2.1-9.71-4.2-19.42-6.3-29.13-1.15-5.31-7.99-4.15-9.64,0-3.77,9.44-7.01,19.06-9.73,28.86h9.64c-3.63-10.84-6.78-21.81-9.44-32.93-1.25-5.22-7.98-4.24-9.64,0-6.56,16.71-11.77,33.87-15.6,51.41h9.64c-2.39-16.53-4.12-33.15-5.24-49.81-.43-6.39-9.7-6.47-10,0-.93,19.96-3.17,39.8-6.77,59.46h9.64c-5.75-20.89-11.51-41.79-17.26-62.68-1.57-5.69-9.35-4.11-9.82,1.33-1.5,17.36-3,34.72-4.5,52.08l9.82-1.33c-4.61-17.08-8.01-34.44-10.04-52.02-.72-6.22-10.28-6.57-10,0,.55,12.95,1.09,25.99-1.46,38.77h9.64c-6.87-16.75-14.74-33.01-23.75-48.71-2.2-3.83-7.89-2.84-9.14,1.19-4.86,15.65-9.71,31.3-14.57,46.94l9.82,1.33c-.33-7.8-.66-15.59-1-23.39-.27-6.4-10.09-6.47-10,0l.18,12.83c.09,6.43,10.09,6.45,10,0h0Z"/>
  <path class="cls-1" d="M918.24,1161.94c.02-5.02.04-10.04.06-15.05.03-6.54-9.42-6.3-10,0s-2.66,12.67-5.95,18.37l9.32,2.52c-.7-9.01-1.39-18.01-2.09-27.02-.43-5.51-8.09-6.92-9.82-1.33-1.43,4.63-4.03,8.22-7.75,11.29l8.36,2.21c-2.68-11.33-4.62-22.77-5.72-34.36-.49-5.15-8.76-7.32-9.82-1.33-1.83,10.3-5.04,20.13-9.83,29.44l9.14,1.19c-2.69-8.26-4.73-16.72-5.85-25.35-.64-4.95-8.96-7.49-9.82-1.33-1.03,7.43-3.46,14.14-7.52,20.45l9.14,1.19c-3.49-8.64-6.12-17.5-7.91-26.65-1.16-5.96-9.27-3.85-9.82,1.33-1.02,9.57-3.67,18.88-7.8,27.57l9.14,1.19c-2.71-7.03-5.43-14.06-8.14-21.09-1.97-5.1-9.64-4.6-9.82,1.33-.23,7.47-1.82,14.51-4.63,21.43h9.64c-2.01-10.84-4.02-21.68-6.03-32.53-.89-4.82-8.68-4.73-9.64,0-2.34,11.48-6.35,22.3-12.14,32.49,3.05.4,6.09.8,9.14,1.19-3.41-14.24-6.11-28.63-8.08-43.14-.77-5.68-9.81-4.15-9.82,1.33-.02,7.92-2.47,14.94-7.14,21.32l9.14,1.19c-2.1-11.61-4.21-23.23-6.31-34.84-.89-4.93-8.53-4.6-9.64,0-.84,3.48-1.8,6.92-2.96,10.31s-3.41,6.9-4.23,10.39l-.78,1.61c2.3,2.28,3.05,2.52,2.25.73-.06-.94-.66-2.07-1.01-2.91-.93-2.22-2.14-3.66-4.1-5.07-2.98-2.14-7.83.69-7.52,4.32.58,6.84-1.01,12.87-4.91,18.53h8.63c-3.64-7.49-6-15.51-6.9-23.79-.69-6.29-10.56-6.47-10,0,.44,5.12-.57,10.06-3.79,14.19l7.85,1.01c-2.74-4.75-5.49-9.5-8.23-14.25-2.43-4.21-9.48-2.49-9.32,2.52.23,7.26-1.87,13.58-6.2,19.39,3.05.4,6.09.8,9.14,1.19-2.7-7.89-5.39-15.77-8.09-23.66-1.81-5.29-9.62-4.46-9.82,1.33-.27,7.82-1.96,15.42-5.2,22.55h8.63c-4.21-7.75-8.41-15.5-12.62-23.25-1.99-3.66-8.24-3.02-9.14,1.19-2.43,11.44-4.95,23.56-13.17,32.39l7.85,1.01c-5.97-13.5-9.09-27.99-9.44-42.72-.15-6.45-9.72-6.42-10,0-.32,7.42-2.35,14.29-6.03,20.73,3.05.4,6.09.8,9.14,1.19-2.92-8.47-7.3-15.96-13.25-22.65-2.61-2.94-7.28-1.18-8.36,2.21-3.3,10.39-6.59,20.79-9.89,31.18l9.14-1.19c-3.47-6.01-5.74-12.29-7.03-19.1-1.08-5.68-9.7-4.14-9.82,1.33-.16,7.18-1.51,14.18-4.31,20.82,3.05.4,6.09.8,9.14,1.19-2.1-5.53-3.48-16.14-11.41-14.72-4.49.81-4.53,7.01-1.19,9.14l.17.11c5.44,3.48,10.46-5.17,5.05-8.63l-.17-.11-1.19,9.14.56-.1-3.85-.5.54.36-2.3-2.99c1.39,3.66,2.78,7.31,4.16,10.97,1.32,3.47,7.28,5.59,9.14,1.19,3.53-8.35,5.48-16.78,5.67-25.86l-9.82,1.33c1.45,7.61,4.17,14.78,8.04,21.49,2.22,3.84,7.86,2.83,9.14-1.19,3.3-10.39,6.59-20.79,9.89-31.18l-8.36,2.21c4.77,5.36,8.34,11.46,10.67,18.24,1.35,3.93,6.9,5.11,9.14,1.19,4.56-7.99,7-16.6,7.4-25.78h-10c.4,16.6,4.1,32.59,10.81,47.77,1.29,2.93,5.84,3.17,7.85,1.01,9.5-10.2,12.92-23.52,15.75-36.8-3.05.4-6.09.8-9.14,1.19,4.21,7.75,8.41,15.5,12.62,23.25,1.67,3.08,7.07,3.44,8.63,0,4-8.8,6.24-17.93,6.57-27.6l-9.82,1.33c2.7,7.89,5.39,15.77,8.09,23.66,1.48,4.33,6.57,4.65,9.14,1.19,5.29-7.11,7.84-15.6,7.56-24.44l-9.32,2.52c2.74,4.75,5.49,9.5,8.23,14.25,1.45,2.51,5.83,3.6,7.85,1.01,4.86-6.24,7.41-13.28,6.72-21.26h-10c1.11,10.14,3.8,19.65,8.26,28.84,1.77,3.63,6.68,2.84,8.63,0,4.78-6.95,6.98-15.18,6.27-23.58l-7.52,4.32c.24.17.76,2.78,1,3.4.57,1.47,1.24,2.92,2.42,4.02,2.93,2.74,7.4,2.52,10.33-.08,3.39-3,4.95-8.11,6.62-12.21,2.14-5.26,3.82-10.65,5.16-16.17h-9.64c2.1,11.61,4.21,23.23,6.31,34.84.85,4.68,6.87,4.29,9.14,1.19,5.64-7.71,8.48-16.83,8.5-26.37l-9.82,1.33c1.97,14.51,4.67,28.9,8.08,43.14,1.01,4.2,7.05,4.86,9.14,1.19,6.2-10.89,10.65-22.6,13.15-34.88h-9.64c2.01,10.84,4.02,21.68,6.03,32.53,1,5.41,8.01,4.03,9.64,0,3.14-7.73,4.73-15.76,4.99-24.09l-9.82,1.33c2.71,7.03,5.43,14.06,8.14,21.09,1.38,3.58,7.11,5.47,9.14,1.19,4.94-10.39,7.95-21.18,9.17-32.62l-9.82,1.33c1.79,9.15,4.42,18.01,7.91,26.65,1.59,3.94,6.65,5.06,9.14,1.19,4.48-6.96,7.38-14.63,8.53-22.84l-9.82-1.33c1.24,9.54,3.22,18.85,6.21,28.01,1.25,3.85,7.07,5.22,9.14,1.19,5.18-10.06,8.86-20.68,10.84-31.83l-9.82-1.33c1.19,12.47,3.19,24.82,6.08,37.02.94,3.95,5.62,4.47,8.36,2.21,5.02-4.15,8.4-9.5,10.32-15.7l-9.82-1.33c.7,9.01,1.39,18.01,2.09,27.02.37,4.73,6.7,7.08,9.32,2.52,4.21-7.31,6.54-15.03,7.31-23.42h-10c-.02,5.02-.04,10.04-.06,15.05-.03,6.44,9.97,6.44,10,0h0Z"/>
  <path class="cls-1" d="M642.34,1134.16l-.69-6.04c-.56-4.93-6.35-6.8-9.32-2.52-10.31,14.85-20.16,30.01-29.53,45.48l6.84-1.79c.68,1.22.91,1.19.71-.1,0-.98,0-1.97-.01-2.95-.02-1.97-.06-3.94-.13-5.91-.12-3.61-.31-7.22-.58-10.82-.55-7.32-1.44-14.61-2.55-21.87-.81-5.33-8.17-4.13-9.64,0-2.43,6.84-4.86,13.67-7.29,20.51l4.82-3.67-.9-.11,3.54,1.46c-1.33-1.24-1.38-7.15-1.7-8.96-.61-3.46-1.23-6.92-1.84-10.37-.88-4.96-8.5-4.57-9.64,0-1.53,6.13-3.24,12.21-5.19,18.22-.88,2.7-1.79,5.39-2.76,8.07-.53,1.49-1.08,2.97-1.64,4.44-.28.74-2.24,3.86-.63,3.19l6.33,4.82c-.45-4.14-.46-8.19.25-12.31,1.08-6.29-8.55-9-9.64-2.66-.86,5.01-1.15,9.91-.6,14.97.3,2.81,3.02,6.21,6.33,4.82,6.41-2.68,7.78-10.38,9.89-16.41,2.83-8.05,5.24-16.23,7.31-24.51h-9.64c1.06,5.96,1.95,11.99,3.18,17.92.88,4.26,2.92,6.88,7.37,7.4,2.27.26,4.14-1.76,4.82-3.67,2.43-6.84,4.86-13.67,7.29-20.51h-9.64c1.42,9.3,2.32,18.66,2.7,28.06.23,5.65-2.06,16.63,4.45,19.57,2.49,1.13,5.32.71,6.84-1.79,9.37-15.46,19.21-30.63,29.53-45.48l-9.32-2.52.69,6.04c.72,6.32,10.73,6.39,10,0h0Z"/>
  <path class="cls-1" d="M677.09,901c2.99,24.33-5.41,47.74-18.34,68.06-6.3,9.9-13.54,19.81-22.68,27.29-9.69,7.93-21.87,11.32-33.76,14.43-12.73,3.33-25.5,6.68-38.5,8.84-12.41,2.06-26.05,3.64-38.36.24s-21.81-11.84-31.4-18.96-19.23-15.15-26.39-24.97-11.97-21.7-15.82-33.44c-4.03-12.32-7.83-24.82-10.87-37.43-5.59-23.12-7.52-49.47,6.42-70.17,13.63-20.24,40.56-26.3,62.97-30.71,25.85-5.09,52.76-10.32,79.19-7.5s50.38,16.23,65.81,38.93c15.87,23.36,22.54,51.14,29.05,78.22,1.5,6.25,11.15,3.61,9.64-2.66-6.45-26.85-13.17-54.47-28.31-77.97-13.63-21.16-33.14-36.85-57.7-43.27-27.47-7.17-56.01-3.28-83.51,1.53-25.81,4.51-54.99,8.85-75.49,26.64-19.08,16.55-24.3,43.56-21.65,67.65,1.63,14.77,5.61,29.05,9.85,43.24,3.9,13.07,7.77,26.25,13.8,38.54,11.61,23.65,33.43,40.18,55.11,54.19,24.29,15.7,54.21,9.69,80.66,3.34,14.76-3.55,30.32-6.69,44-13.5,12.94-6.44,22.47-17.42,30.81-28.94,16.95-23.41,29.1-52.22,25.48-81.6-.78-6.3-10.79-6.38-10,0h0Z"/>
  <path class="cls-1" d="M829.64,988.49c-9.01-8.38-14.34-19.4-18.72-30.73-4.77-12.36-9.3-24.92-12.87-37.69-3.66-13.09-6.18-26.57-5.53-40.21.67-14.01,5.65-26.45,12.59-38.48,6.23-10.79,12.42-23.15,23.93-29.09,10.32-5.33,23.03-7.28,34.41-9.05,22.92-3.56,46.65-3.23,69.51.62s45.23,11.11,65.89,21.72c10.28,5.27,20.15,11.34,29.47,18.16,4.74,3.47,9.39,7.13,13.75,11.06,5.12,4.61,7.6,9.19,7.97,16.1.72,13.53.53,27.32.05,40.86-.45,12.8-2.41,25.36-10.32,35.84s-17.58,18.45-26.72,26.92-18.88,16.88-29.44,23.86c-24.62,16.28-53.11,22.34-82.35,18.82s-57.42-16.81-82.13-33.19c-5.38-3.57-10.39,5.09-5.05,8.63,46.62,30.91,106.94,49.11,159.96,22.84,24.67-12.23,45.35-32.29,64.57-51.63,9.58-9.64,16.92-20.3,19.59-33.85,2.72-13.83,2.17-28.32,2.1-42.35-.07-13.42,1.34-27.47-8.82-37.75-9.04-9.15-20.29-16.84-31.15-23.63-21.27-13.31-44.86-23.07-69.26-28.91s-50.92-7.99-76.45-5.52c-12.49,1.21-25,3.31-37.09,6.7-13.13,3.69-23.12,10.11-30.97,21.4-8.89,12.79-17.63,27.4-21.51,42.6-3.98,15.6-2.97,31.91.26,47.54s9.02,31.83,14.8,47.26c5.24,13.97,11.33,27.86,22.45,38.2,4.71,4.38,11.8-2.68,7.07-7.07h0Z"/>
  <path class="cls-1" d="M668.48,876.45c20.41-9.76,42.07-16.76,64.33-20.83,10.56-1.93,21.34-3.33,32.09-3.65,8.05-.24,18.5.19,23.7,7.38,3.74,5.16,12.42.18,8.63-5.05-13.09-18.06-41.14-12.4-59.91-9.53-25.65,3.93-50.5,11.85-73.9,23.04-5.8,2.78-.74,11.4,5.05,8.63h0Z"/>
  <path class="cls-1" d="M587.35,1162.4c.06-6.55.12-13.1.18-19.65l-9.82,1.33c2.45,6.32,4.91,12.64,7.36,18.96,1.73,4.45,8.12,5.02,9.64,0,3.72-12.28,7.98-24.37,12.79-36.27l-9.14,1.19c3.82,7.15,7.08,14.51,9.78,22.16,1.47,4.16,8.79,5.31,9.64,0,1.43-8.96,4.06-17.5,8.12-25.62h-8.63c3.91,7.39,7.81,14.79,11.72,22.18,1.94,3.67,8.29,3.01,9.14-1.19,2.43-11.97,4.85-23.94,7.28-35.91h-9.64c5.66,13.57,12.81,26.24,21.77,37.91,3.05,3.97,8.82,2.66,9.32-2.52,1.66-17.35,3.32-34.7,4.99-52.05l-9.82,1.33c3.92,15.39,7.84,30.79,11.77,46.18,1.21,4.77,8.42,4.76,9.64,0,1.88-7.33,3.76-14.66,5.65-21.99-3.05.4-6.09.8-9.14,1.19,6.18,13.72,14.15,26.35,23.66,38,2.4,2.94,7.52,1.21,8.36-2.21,3.99-16.29,6.75-32.82,8.35-49.51l-9.32,2.52c8.7,16.75,17.76,33.59,31.58,46.75,2.85,2.72,7.11,1.34,8.36-2.21,3.17-9.02,7.5-17.43,12.85-25.35l-7.85,1.01c2.42,3.1,4.83,6.2,7.25,9.3,2.04,2.62,4.07,6.31,7.18,7.85,5.33,2.65,10.6-1.1,12.73-6.01.41-.95,1.22-7.06,2.11-7.36,2.03-.68,4.96,4.3,5.81,5.53,3.43,4.93,6.98,8.61,13.21,9.22,2.89.28,4.74-2.53,5-5,.9-8.41,2.45-16.7,4.54-24.89-3.05.4-6.09.8-9.14,1.19,4.04,8.84,8.77,17.28,14.2,25.35,2.87,4.27,8.86,2.43,9.32-2.52,1.04-11.33,2.29-22.56,6.3-33.29l-9.14,1.19c6.56,13.38,12.73,26.94,18.53,40.67,2.12,5.01,8.99,1.83,9.32-2.52.84-11,1.68-22.01,2.52-33.01l-9.32,2.52c8.28,11.51,16.56,23.02,24.84,34.52,2.55,3.54,7.67,3.05,9.14-1.19s3.02-8.73,4.52-13.09c-3.05.4-6.09.8-9.14,1.19,3.93,5.79,7.87,11.58,11.8,17.37,3.43,5.04,6.58,10.65,10.65,15.21,5.6,6.27,18.35,7.54,20.4-2.76l-8.36,2.21c4.7,3.71,11.03,4.04,15.25-.73,4.26-4.8-2.79-11.9-7.07-7.07-.21.55-.58.79-1.11.73-2.68-2.11-7.54-1.87-8.36,2.21-.43,2.17-4.14-2.22-4.66-2.91-2.28-3.04-4.3-6.3-6.43-9.44-4.5-6.62-8.99-13.23-13.49-19.85-2.47-3.64-7.7-2.97-9.14,1.19-1.51,4.36-3.02,8.73-4.52,13.09l9.14-1.19c-8.28-11.51-16.56-23.02-24.84-34.52-2.92-4.06-8.93-2.59-9.32,2.52-.84,11-1.68,22.01-2.52,33.01l9.32-2.52c-5.79-13.73-11.97-27.29-18.53-40.67-2.07-4.22-7.77-2.47-9.14,1.19-4.32,11.53-5.54,23.77-6.66,35.94l9.32-2.52c-5.43-8.06-10.16-16.51-14.2-25.35-1.83-4-8.14-2.73-9.14,1.19-2.31,9.07-3.9,18.25-4.89,27.55l5-5c-3.91-.38-7.2-8.58-10.12-10.99-3.74-3.09-8.93-5.05-13.57-2.62-4.3,2.25-5.84,7.24-6.43,11.74-.27,2.04-.21.58-1.08-.85s-2.28-2.93-3.34-4.29c-2.23-2.86-4.46-5.72-6.69-8.59s-6.26-1.35-7.85,1.01c-5.83,8.64-10.4,17.92-13.86,27.74l8.36-2.21c-13.22-12.57-21.7-28.72-30.02-44.72-2.49-4.79-8.88-2.01-9.32,2.52-1.52,15.81-4.22,31.43-8,46.85l8.36-2.21c-8.95-10.96-16.29-23.08-22.1-35.97-1.81-4.02-8.14-2.71-9.14,1.19-1.88,7.33-3.76,14.66-5.65,21.99h9.64c-3.92-15.39-7.84-30.79-11.77-46.18-1.47-5.78-9.31-4.02-9.82,1.33-1.66,17.35-3.32,34.7-4.99,52.05l9.32-2.52c-8.39-10.92-15.46-22.8-20.77-35.52-1.68-4.04-8.55-5.41-9.64,0-2.43,11.97-4.85,23.94-7.28,35.91l9.14-1.19c-3.91-7.39-7.81-14.79-11.72-22.18-1.69-3.2-6.97-3.32-8.63,0-4.45,8.88-7.57,18.2-9.13,28.01h9.64c-2.98-8.45-6.56-16.64-10.78-24.55-2.23-4.17-7.65-2.5-9.14,1.19-4.8,11.9-9.07,23.99-12.79,36.27h9.64l-7.36-18.96c-1.95-5.02-9.77-4.66-9.82,1.33-.06,6.55-.12,13.1-.18,19.65s9.94,6.44,10,0h0Z"/>
</svg>